<svg xmlns="http://www.w3.org/2000/svg" xmlns:xlink="http://www.w3.org/1999/xlink" width="800" height="600" viewBox="0 0 800 600"><defs><linearGradient id="a" x1="666.22" y1="318.69" x2="537.34" y2="450.61" gradientTransform="matrix(1, 0.1, -0.1, 1, 31.16, -232.95)" gradientUnits="userSpaceOnUse"><stop offset="0" stop-color="#253338" stop-opacity="0"/><stop offset="1" stop-color="#253338"/></linearGradient><linearGradient id="b" x1="138.32" y1="644.27" x2="506.6" y2="318.48" gradientTransform="matrix(1, 0.1, -0.1, 1, 31.16, -232.95)" gradientUnits="userSpaceOnUse"><stop offset="0" stop-color="#526571" stop-opacity="0"/><stop offset="1" stop-color="#89a9bd"/></linearGradient><linearGradient id="c" x1="241.52" y1="620.82" x2="526.74" y2="368.51" xlink:href="#b"/><linearGradient id="d" x1="330.25" y1="614.77" x2="330.25" y2="563.06" xlink:href="#a"/><linearGradient id="e" x1="208.05" y1="572.69" x2="208.05" y2="514.57" xlink:href="#a"/><linearGradient id="f" x1="448.91" y1="655.89" x2="448.91" y2="613.28" xlink:href="#a"/><linearGradient id="g" x1="4410.16" y1="563.01" x2="4410.16" y2="501.48" gradientTransform="matrix(-1, -0.1, -0.1, 1, 5018.89, 264.83)" xlink:href="#a"/><linearGradient id="h" x1="4344.08" y1="458.85" x2="4344.08" y2="410.77" gradientTransform="matrix(-1, -0.1, -0.1, 1, 5018.89, 264.83)" xlink:href="#a"/><linearGradient id="i" x1="368.26" y1="194.12" x2="537.42" y2="194.12" gradientTransform="matrix(1, 0, 0, 1, 0, 0)" xlink:href="#a"/><linearGradient id="j" x1="321.89" y1="370.42" x2="357.53" y2="340.51" gradientTransform="matrix(1, 0, 0, -1, 0, 602)" gradientUnits="userSpaceOnUse"><stop offset=".2" stop-color="#253338" stop-opacity="0"/><stop offset=".8" stop-color="#253338"/></linearGradient><linearGradient id="k" x1="409.45" y1="173.04" x2="495.64" y2="204.41" gradientUnits="userSpaceOnUse"><stop offset="0" stop-color="#fcee21" stop-opacity=".4"/><stop offset=".17" stop-color="#fceb26" stop-opacity=".36"/><stop offset=".44" stop-color="#fde434" stop-opacity=".27"/><stop offset=".79" stop-color="#fed84b" stop-opacity=".11"/><stop offset="1" stop-color="#ffd05b" stop-opacity="0"/></linearGradient><linearGradient id="l" x1="409.45" y1="173.04" x2="495.64" y2="204.41" gradientUnits="userSpaceOnUse"><stop offset="0" stop-color="#9b6429" stop-opacity="0"/><stop offset="1" stop-color="#9b6429" stop-opacity=".3"/></linearGradient><clipPath id="m"><path d="M449.18 203.49L429.07 198l33.39-23.23 19.62 5.57zm-45.87-13.57l18 5.37 17.18-11.42-17.49-4.59zm95.26 6.44l-18.74-5.56-21.77 15.52 19.23 5.47z" fill="none"/></clipPath><style>.n{isolation:isolate}.c{fill:#3b4e56}.e{fill:#d5dfe3}.f{fill:#28333f}.n{opacity:.2}.l{fill:#526571}.n{fill:#8499a0}.ap{fill:#fff}.au{clip-path:url(#m)}.av{fill:#d9962c}</style></defs><path d="M413.16 146.19l369.27 111.47-298.11 294L117.5 355.08z" style="isolation:isolate" opacity=".1" fill="url(#a)"/><path class="c" d="M477 500.32l-359.79-164-10.45-52.13 8.69-36.7 563.7 9.67 16.4 5.95z"/><path d="M473.88 491L125.11 333.31s-14.74-43.43-2.83-79.45c30.36 9.17 340 118.79 340 118.79l4.39-2.64s7.5 117.33 7.21 120.99z" fill="#adb9bc"/><path class="e" d="M680.72 183.28L466.65 370c-11.51 43.06 7.23 121 7.23 121l210.06-227.19c-13.38-34.94-3.22-80.53-3.22-80.53z"/><path class="f" d="M124.63 347l-7.42-1.27c-28-58.86-2.25-102.79-2.25-102.79l7 2.05C97.78 285.87 124.63 347 124.63 347z"/><path d="M462.85 364.26l229.09-195.32L408 108.81 115.16 244.1l347.69 120.16z" fill="#62e8c2"/><path class="c" d="M462.85 364.26l229.09-195.32L408 108.81 115.16 244.1l347.69 120.16z"/><path d="M462.85 364.26l228.9-195.62.09.59-284-59.93h.29L115.26 244.49v-.69zm0 0L115.06 244.49l-.78-.3.78-.39 292.83-135.38.1-.1h.1l284 60.23.58.09-.48.39z" fill="#b2c4cc" opacity=".2"/><path d="M691.94 168.84l-284-60L115.16 244.1l75 25.86z" style="isolation:isolate" fill="url(#b)" opacity=".2"/><path d="M637.86 214.72l17.48-14.65L226 282.55l23.53 8.11z" style="isolation:isolate" fill="url(#c)" opacity=".2"/><path class="l" d="M115.74 244.58l-1.27-3.31L408 108.81z"/><path class="f" d="M463.24 363.67L692 168.84l1.17-1.76V176L464.51 379.38l-349.16-129 2.83-6.24z"/><path class="f" d="M476.81 500.13l218.64-237.29.69 8.39-217.58 245L117.5 345.81l-4.1-11.62z"/><path d="M677.2 209.74C649.28 224.67 466.36 398 473.88 490.86c-16.4-57.69-10.45-113.33-10.45-113.33l216.7-189.66z" style="isolation:isolate" opacity=".3" fill="#8499a0"/><path class="n" d="M470.27 474.07l-.78-4.3L680.72 252.2l1.07 3.51zM467.92 463.82l-.78-4.3L678.57 243.9l1.07 3.52z"/><path class="n" d="M123.45 321.5l-1-3.81 346 151.89 1.85 4.39zM120.72 312.91l-1-3.8 347.62 149.34 1.85 4.39zM118.57 280.8l-1.17-3.71 345.35 139.29.49 4.39zM117.79 273.09l.88-3.91 343.4 132.66 2.93 6z"/><path class="n" d="M677.2 226.14l-.88-13.14-213.57 203.38.49 4.39L676.52 215.2zm1.76-20l-216.8 195.7.79 5.07 214.54-197.17c-.09.09 1.51-3.61 1.51-3.61z"/><path class="l" d="M122 245.56l85 28.7 84.92 28.79 169.84 57.89-1.66.29 56.52-48.61 56.62-48.51 113-97 1 3.71L617.37 156l-69.89-15-139.88-29.85 1.17-.1-36.77 16.5L335.27 144l-73.5 32.89-73.5 32.9-73.6 32.7.29-.3a80.83 80.83 0 00-5.17 12.3 100.58 100.58 0 00-3.32 13 116.75 116.75 0 00-2 26.74 118.63 118.63 0 001.27 13.37c.09 1.08.29 2.25.49 3.32l.58 3.32c.49 2.15.88 4.39 1.46 6.54a157.23 157.23 0 009 25.38 152 152 0 01-9.38-25.38c-.68-2.15-1.07-4.39-1.56-6.54l-.68-3.32c-.2-1.07-.39-2.24-.59-3.32a125.7 125.7 0 01-1.46-13.47 114.51 114.51 0 011.76-27 98.84 98.84 0 013.22-13.17 73.25 73.25 0 015.17-12.59l.1-.2.19-.1 73.21-33.48 73.31-33.38 73.3-33.38L370.51 124l36.7-16.59.59-.29.58.1 139.88 29.47 70 14.74 70 14.84 4.2.88-3.25 2.85-113.33 96.84-56.71 48.41-56.71 48.32-.78.59-.88-.3-169.55-58.76-84.63-29.77z"/><path d="M687.65 168.64c-23.43-4.49-46.76-9.27-70.19-13.86l-70.08-14.25-35-7.12-35.05-7.33-70-14.73 1.36-.2-73.4 33.09L261.77 177l-73.6 32.5-36.8 16.21-18.45 8-18.45 8 18.26-8.59 18.27-8.45 36.51-17L260.6 174l73.21-33.38 73.4-33.19.59-.29.68.19 69.89 14.94 34.94 7.51 35 7.72 69.79 15.42c23.08 5.18 46.41 10.35 69.55 15.72z" fill="#99b0bc"/><path class="l" d="M117.4 345.71a134.84 134.84 0 01-10.05-25.18c-.29-1.08-.68-2.15-.88-3.32l-.78-3.32-.68-3.32c-.2-1.07-.49-2.25-.69-3.32a127.6 127.6 0 01-1.66-13.57 111.84 111.84 0 011.57-27.33 105.71 105.71 0 013.22-13.35c.68-2.15 1.46-4.39 2.34-6.54a62 62 0 012.93-6.35l.29-.58.68-.29 16.11-7 16.2-6.93c10.84-4.69 21.67-9.18 32.51-13.77s21.67-9 32.6-13.47 21.86-8.78 32.8-13c-10.55 5.18-21.19 10.15-31.92 15.13s-21.38 9.76-32.12 14.64-21.47 9.67-32.21 14.25l-16.2 7-16.2 6.91 1-.88a47.31 47.31 0 00-2.76 5.88c-.88 2.05-1.56 4.1-2.25 6.25a101.3 101.3 0 00-3.32 12.75 120.23 120.23 0 00-2.14 26.46 134.28 134.28 0 003.41 26.45 156.8 156.8 0 008.2 25.8z"/><path class="f" d="M411.5 115.74l128.17 27.72 64.23 14.06 64.22 14.15 3.13.68-2.54 2L617 217.06l-51.74 42.65-103.58 85.22-.88.78-1.08-.39-38.84-12.89-38.76-12.88-77.5-25.87-77.5-25.86-38.66-12.89-38.65-13-3.9-1.37 3.7-1.75 131-61.79 65.5-30.65zm0 0l-130.31 63.35-130.11 62.76-.2-3.12 38.85 12.69 38.75 12.78L306 289.88l77.5 25.67 38.75 12.78L461 341.22l-1.95.39 103.75-84.92 51.93-42.46 52-42.37.68 2.74-63.9-14.6-63.94-14.65z" opacity=".33"/><path style="isolation:isolate" fill="url(#d)" opacity=".2" d="M309.89 417.16l-24.99-11.32 7.23-53.79 26.06 9.08-8.3 56.03z"/><path d="M244.59 393.54l31.72 18.74s13.08-42.07 42.46-51.44c-8-2.25-25.77-9.86-32.21-11.23-21.96 3.71-41.97 43.93-41.97 43.93z" fill="#c4373e"/><path d="M244.59 393.54L274 407.69s15.42-37.48 44.9-46.85c-8-2.25-25.77-9.86-32.21-11.23-22.09 3.71-42.1 43.93-42.1 43.93z" fill="#ff3849"/><path d="M286.66 349.61a34.07 34.07 0 00-13.28 7.62 87.19 87.19 0 00-10.44 11.22c-3.12 4.1-6.05 8.3-8.78 12.69s-5.37 8.88-7.62 13.37l-1-2.92c4.88 2.34 9.76 4.78 14.64 7.22l7.22 3.71c2.44 1.17 4.88 2.44 7.22 3.71l-2.24.88a69.63 69.63 0 013.81-7.13c1.36-2.34 2.83-4.59 4.29-6.73s3.12-4.3 4.88-6.35a78.5 78.5 0 015.37-5.86c-1.46 2.15-3 4.4-4.39 6.64s-2.74 4.49-4 6.83-2.54 4.59-3.62 6.94-2.24 4.78-3.12 7.12l-.59 1.56-1.66-.78c-2.44-1.07-5-2.24-7.41-3.32l-7.42-3.41c-4.88-2.35-9.86-4.69-14.74-7l-1.95-1 1-1.95a138.84 138.84 0 018.1-13.67 110.63 110.63 0 019.67-12.59c1.75-1.95 3.61-3.9 5.56-5.76a77.38 77.38 0 016.15-5.07 37.18 37.18 0 016.93-3.91 21.74 21.74 0 017.42-2.06z" fill="#ff7b8b"/><path style="isolation:isolate" fill="url(#e)" opacity=".2" d="M192.37 363.77l-24.89-11.33 7.9-61.69 26.07 9.08-9.08 63.94z"/><path d="M141.22 326.38l26.45 13.18s9.86-32.11 33.68-39.73c-6.44-1.75-20.89-8-26.06-9.08-17.87 3.03-34.07 35.63-34.07 35.63z" fill="#364682"/><path d="M141.22 326.38l23.91 10.06s12.4-29 36.32-36.61c-6.45-1.75-20.89-8-26.07-9.08-17.96 3.03-34.16 35.63-34.16 35.63z" fill="#405bab"/><path d="M175.38 290.75a27.58 27.58 0 00-10.64 6.35 62.33 62.33 0 00-8.29 9.17 120.09 120.09 0 00-7 10.25c-1.07 1.76-2.15 3.52-3.22 5.37a57.47 57.47 0 00-2.93 5.47l-1.07-2.93 6 2.54c1.95.88 4 1.75 5.95 2.63l6 2.64c1.95.88 3.9 1.85 5.86 2.73l-2.15.88a42.67 42.67 0 013-5.37 46.1 46.1 0 013.42-5c1.27-1.56 2.44-3.22 3.81-4.68a58.4 58.4 0 014.19-4.3c-1.07 1.66-2.24 3.32-3.22 5s-2.05 3.42-3 5.08-1.86 3.41-2.74 5.27-1.66 3.51-2.34 5.27l-.58 1.46-1.57-.58c-2.05-.78-4.1-1.47-6.05-2.34l-6.05-2.35c-2-.78-4-1.66-6-2.44l-6-2.44-2.14-.88 1.07-2.05a115.73 115.73 0 016.64-11.12 99.2 99.2 0 017.9-10.25c1.47-1.56 2.93-3.13 4.59-4.59a52 52 0 015.08-4.1 22.36 22.36 0 0111.48-4.69z" fill="#5173d4"/><path style="isolation:isolate" fill="url(#f)" opacity=".2" d="M423.9 469.09l-24.89-11.32 6.05-42.76 26.06 9.08-7.22 45z"/><path style="isolation:isolate" fill="url(#g)" opacity=".2" d="M565.63 391.59l21.77-24.02 3.12-49-22.25 20.11-2.64 52.91z"/><path d="M353.13 467.72l38.75 22.16s2-55.34 38.46-67c-9.86-2.73-31.92-12.2-39.82-14-27.43 4.57-37.39 58.84-37.39 58.84z" fill="#e6aa45"/><path d="M353.13 467.72l36.31 17.57s4.3-50.75 40.9-62.37c-9.86-2.73-31.92-12.2-39.82-14-27.43 4.53-37.39 58.8-37.39 58.8z" fill="#f1d047"/><path d="M390.42 409c-5.95 1.47-10.93 5.27-14.84 9.76a65.49 65.49 0 00-9.46 15.13c-1.27 2.73-2.44 5.47-3.52 8.3s-2.05 5.66-2.93 8.49a161.68 161.68 0 00-4.49 17.47l-1.18-2.38 9.08 4.39 9.08 4.4 9 4.49c3 1.46 6.05 3 9 4.58l-2.47 1.37c.49-3.42 1.07-6.54 1.85-9.76s1.76-6.35 2.83-9.47a76.32 76.32 0 013.81-9.08 69.78 69.78 0 014.88-8.59c-.68 1.47-1.37 2.93-1.95 4.49l-.88 2.25-.88 2.24c-.58 1.47-1.07 3-1.56 4.59a40.26 40.26 0 00-1.27 4.69 77.7 77.7 0 00-2 9.46 79.07 79.07 0 00-1.27 9.47l-.19 2.44-2.25-1c-3-1.37-6.15-2.83-9.17-4.2l-9.18-4.3-9.08-4.39-9.08-4.39-1.46-.78.29-1.56c.59-3.13 1.37-6.05 2.15-9.08s1.76-5.95 2.73-8.88a121 121 0 017.32-17.09A63.7 63.7 0 01374.22 417a34.93 34.93 0 017.51-5.57 28.68 28.68 0 018.69-2.43z" fill="#ffe652"/><path d="M623.22 361.13l-28.89 30.07s9.08-51.93-26.16-52.91l22.65-19.91c31.82-4.98 32.4 42.75 32.4 42.75z" fill="#2da59b"/><path d="M623.22 361.13l-25.08 24.6s5.27-46.46-29.87-47.44l22.64-19.91c31.73-4.98 32.31 42.75 32.31 42.75z" fill="#1ac9b6"/><path d="M590.91 318.28a25.52 25.52 0 017.71-.49 20.28 20.28 0 017.52 2.15 27.49 27.49 0 0111 11.13 52.87 52.87 0 015.47 14.64 82.88 82.88 0 012.05 15.52v.59l-.49.48-6.17 6.15-6.34 6.05-6.35 6.06c-2.15 2.05-4.29 4-6.34 6.05l-2.25 2.05.39-2.93c.3-2.34.39-4.78.49-7.13s0-4.78-.19-7.22-.49-4.78-.88-7.22a53.12 53.12 0 00-1.76-7 53.29 53.29 0 012.54 6.93 45.06 45.06 0 011.46 7.22 62.47 62.47 0 01.69 7.32 65.92 65.92 0 01-.1 7.42l-1.86-.88c2-2.05 4.1-4.19 6.15-6.24l6.15-6.25 6.2-6.18 6.25-6.15-.49 1.07a76.9 76.9 0 00-1.86-14.93 54.55 54.55 0 00-4.78-14.15 26.4 26.4 0 00-9.76-10.94 21.65 21.65 0 00-7-2.53l-1.85-.3a12.88 12.88 0 00-1.86-.09h-2z" fill="#2ee8cf"/><path style="isolation:isolate" fill="url(#h)" opacity=".2" d="M643.72 293.49l16.99-18.74 2.34-38.27-17.38 15.72-1.95 41.29z"/><path d="M702.78 259.32l-21.48 22.55s-8-29.28-35.53-30.06l17.67-15.62c24.79-3.71 39.34 23.13 39.34 23.13z" fill="#55a949"/><path d="M702.87 260.2l-19.52 19.13s-10.05-26.74-37.58-27.52l17.67-15.62c24.79-3.71 39.43 24.01 39.43 24.01z" fill="#5fc83a"/><path d="M688.13 243.12a48.35 48.35 0 014.59 3.42 30.92 30.92 0 014.1 4 40 40 0 013.71 4.39 40.75 40.75 0 013.22 4.78l.39.69-.58.58c-3.13 3.32-6.35 6.54-9.57 9.76-1.56 1.66-3.22 3.23-4.88 4.88l-4.88 4.79-1.56 1.59-.88-2.05a49.4 49.4 0 00-5.86-10.35 45.54 45.54 0 00-8.2-8.68 41.85 41.85 0 00-10.25-6.15 43.42 43.42 0 00-11.81-2.93 35.11 35.11 0 0112.3 1.56 42.1 42.1 0 015.86 2.34 38.4 38.4 0 015.37 3.26 45.77 45.77 0 019 8.88 49.22 49.22 0 013.51 5.27 45.65 45.65 0 012.93 5.76l-2.44-.48 4.88-4.79c1.66-1.56 3.22-3.22 5-4.78l10-9.37-.19 1.27A42.21 42.21 0 00699 256c-1-1.56-2.15-3-3.22-4.58s-2.35-2.93-3.61-4.3a31.57 31.57 0 00-4.04-4z" fill="#83e348"/><path class="f" d="M456.31 151c-46.76 0-86.19 18.25-88.14 40.8-1 10.64 6.63 20.3 19.81 27.52l-12.4 5.76-4.39-2.24-77.89 36 14.93 7.51 77.9-36-4.4-2.24 12.5-5.76c14.35 6.34 33.58 10.15 54.95 10.15 46.76 0 86.19-18.25 88.14-40.8S503 151 456.31 151zm-6.44 72.42c-37.39 0-66.48-15.52-64.82-33.58s33.19-32.6 70.57-32.6 66.48 14.64 64.82 32.6-33.19 33.56-70.57 33.56z"/><path class="e" d="M381.83 232v-3.9l12.49-5.76a138.41 138.41 0 0055 11.13c46.56 0 86-19.14 88.14-41.59-2-20.79-36.89-37.09-81-37.09-46.56 0-85.9 18.16-88.15 40.51.88 9.18 8.2 17.47 19.82 23.82V223l-12.4 5.76zm3.17-38.27c1.57-18.06 33.19-32.6 70.58-32.6s66.47 14.64 64.81 32.6-33.19 32.6-70.57 32.6-66.43-14.54-64.82-32.6z"/><path d="M381.83 232v-3.9l12.49-5.76a138.41 138.41 0 0055 11.13c46.56 0 86-19.14 88.14-41.59-2-20.79-36.89-37.09-81-37.09-46.56 0-85.9 18.16-88.15 40.51.88 9.18 8.2 17.47 19.82 23.82V223l-12.4 5.76zm3.17-38.27c1.57-18.06 33.19-32.6 70.58-32.6s66.47 14.64 64.81 32.6-33.19 32.6-70.57 32.6-66.43-14.54-64.82-32.6z" fill="#37596b" opacity=".1"/><path d="M381.83 232v-3.9l12.49-5.76a138.41 138.41 0 0055 11.13c46.56 0 86-19.14 88.14-41.59-2-20.79-36.89-37.09-81-37.09-46.56 0-85.9 18.16-88.15 40.51.88 9.18 8.2 17.47 19.82 23.82V223l-12.4 5.76zm3.17-38.27c1.57-18.06 33.19-32.6 70.58-32.6s66.47 14.64 64.81 32.6-33.19 32.6-70.57 32.6-66.43-14.54-64.82-32.6z" style="isolation:isolate" opacity=".2" fill="url(#i)"/><path d="M371.19 226.72l-73.89 34.17 10.93 5.46 73.89-34.16z" fill="#8499a0"/><path d="M371.19 226.72l-73.89 34.17 10.93 5.46 73.89-34.16z" style="isolation:isolate" opacity=".4" fill="url(#j)"/><path fill="#e6edef" d="M382.12 232.28l-.39-.19v-3.9l8.2-3.81-2.05-1.17-12.3 5.76 6.54 3.31z"/><path class="ap" d="M507.94 166.5a60.28 60.28 0 0112.4 6.05c1 .58 1.86 1.27 2.83 1.95s1.86 1.46 2.64 2.24a26 26 0 014.49 5.26 19.25 19.25 0 012.53 6.44A13.81 13.81 0 01533 192a13.32 13.32 0 01-.49 3.42c-1.17 4.49-4.1 8.39-7.42 11.52l-.19-.2c2.63-3.81 4.78-7.81 5.46-11.81a16.06 16.06 0 00-2.53-11.32 23.05 23.05 0 00-3.91-4.79c-.68-.78-1.56-1.46-2.34-2.24l-1.27-1.07c-.39-.39-.88-.69-1.27-1.08-3.51-2.73-7.32-5.07-11.22-7.71z"/><path class="ap" d="M381.73 228.19c4.1-2.05 8.2-4 12.3-6.06l.1-.09.1.09a139.81 139.81 0 0019 6.25c3.22.78 6.54 1.47 9.76 2.05s6.54 1 9.86 1.37a160.39 160.39 0 0039.83-.88 133 133 0 0038.16-11A66.86 66.86 0 00527.47 209a36.82 36.82 0 006.34-7.62 24.16 24.16 0 003.42-9.27 24 24 0 01-3 9.57 38.19 38.19 0 01-6.15 8 54.12 54.12 0 01-7.81 6.44 71.8 71.8 0 01-8.68 5.18 105.24 105.24 0 01-18.84 7.41A151 151 0 01473 233a155.23 155.23 0 01-20.11 1.66 153.14 153.14 0 01-20.11-1 140.39 140.39 0 01-19.81-3.9 117.93 117.93 0 01-18.97-6.85h.29q-6.29 2.49-12.56 5.28z"/><path class="e" d="M297.3 260.89l5.56 2.63 5.57 2.64h-.3c6.15-2.93 12.21-5.86 18.36-8.69s12.29-5.76 18.44-8.59c12.3-5.66 24.7-11.23 37.1-16.69-12.21 5.95-24.41 11.81-36.71 17.47-6.15 2.93-12.29 5.66-18.44 8.49s-12.3 5.66-18.55 8.4l-.1.09-.1-.09c-1.85-1-3.61-1.86-5.36-2.83z"/><path d="M441.57 181.72l-20.3 13.57-21.19-6.29 20.8-12.69zm21-9.86l-36.4 25.38 23.13 6.25 35.92-25.28zm17.28 16l-24.69 17.57 22.15 6.25 24.21-17.47z" fill-rule="evenodd" fill="#28333f"/><path d="M449.18 203.49L429.07 198l33.39-23.23 19.62 5.57zm-45.87-13.57l18 5.37 17.18-11.42-17.49-4.59zm95.26 6.44l-18.74-5.56-21.77 15.52 19.23 5.47z" fill="#ffd52f"/><path d="M449.18 203.49L429.07 198l33.39-23.23 19.62 5.57zm-45.87-13.57l18 5.37 17.18-11.42-17.49-4.59zm95.26 6.44l-18.74-5.56-21.77 15.52 19.23 5.47z" fill="url(#k)"/><path d="M449.18 203.49L429.07 198l33.39-23.23 19.62 5.57zm-45.87-13.57l18 5.37 17.18-11.42-17.49-4.59zm95.26 6.44l-18.74-5.56-21.77 15.52 19.23 5.47z" fill="url(#l)"/><g class="au"><path class="av" d="M477.2 211.79c1.56-1.56 3.22-3 4.88-4.49s3.32-2.83 5.07-4.2 3.42-2.73 5.18-4 3.51-2.64 5.36-3.81l.4 2.54c-1.57-.49-3.13-1-4.59-1.56s-3-1.08-4.59-1.66l-4.59-1.76c-1.46-.59-3-1.27-4.49-1.95 1.66.19 3.22.49 4.88.78s3.22.68 4.79 1 3.22.68 4.78 1.17 3.12.78 4.68 1.27l2.74.78-2.35 1.75c-1.75 1.27-3.51 2.54-5.36 3.81s-3.62 2.44-5.47 3.71l-5.52 3.49c-1.9.98-3.75 2.05-5.8 3.13z"/></g><g class="au"><path class="av" d="M462.55 174.79c1.66.3 3.42.59 5.08.88s3.32.68 5 1.07q5 1 10 2.35l2.63.68-2.26 1.66c-2.64 2-5.47 3.9-8.2 5.95-2.74 1.86-5.47 3.81-8.3 5.67s-5.66 3.7-8.49 5.46-5.76 3.52-8.79 5.08c2.54-2.25 5.08-4.39 7.71-6.54s5.27-4.2 8-6.15 5.46-3.91 8.1-6c2.73-1.85 5.47-3.8 8.3-5.66l.39 2.35q-4.83-1.47-9.67-3.23l-4.78-1.75c-1.49-.55-3.15-1.23-4.72-1.82z"/></g><g class="au"><path class="av" d="M421.27 195.29c1.26-1.27 2.53-2.34 3.9-3.51l2.05-1.66 2-1.56c2.73-2.15 5.56-4.1 8.39-6l.39 2.64c-2.92-.78-5.75-1.66-8.68-2.64-1.47-.49-2.83-1-4.3-1.56s-2.83-1.17-4.19-1.86c1.56.1 3 .3 4.49.49s3 .49 4.49.78c2.92.49 5.85 1.18 8.78 2l3.12.78L439 185c-2.83 2-5.76 3.81-8.69 5.47l-2.24 1.27-2.25 1.27c-1.43.82-2.99 1.6-4.55 2.28z"/></g><path class="e" d="M458.06 206.32c3.23.68 6.45 1.56 9.67 2.34s6.44 1.66 9.56 2.64l-.39.1c4.1-2.93 8.11-5.76 12.21-8.59l12.29-8.5c-3.9 3-7.9 6.06-11.9 9s-8 5.86-12 8.79l-.2.1-.19-.1c-3.22-.88-6.35-1.85-9.57-2.73s-6.35-1.98-9.48-3.05zM429.17 198c1.66.3 3.42.69 5.08 1.08s3.41.78 5.07 1.27l5.08 1.27 5 1.36-.39.1 9-6.25 9.08-6.24c6.05-4.2 12.1-8.3 18.15-12.4-5.95 4.29-11.81 8.59-17.76 12.88l-8.89 6.35-9 6.34-.19.1-.2-.1-5.07-1.36-5-1.47-5-1.46a26.16 26.16 0 01-4.96-1.47zM441.57 181.72q-5 3.66-10 7c-3.32 2.34-6.73 4.59-10.05 6.83l-.2.1-.19-.1c-3-.87-6-1.75-9-2.73l-4.39-1.46c-1.47-.49-2.93-1-4.4-1.57 1.56.3 3 .69 4.59 1.08l4.49 1.17c3 .78 5.95 1.66 9 2.54l-.39.1c3.42-2.25 6.74-4.49 10.25-6.64 3.36-2.04 6.77-4.27 10.29-6.32z"/></svg>